<svg xmlns="http://www.w3.org/2000/svg" width="113.857" height="37" viewBox="0 0 113.857 37">
  <g id="Group_1038" data-name="Group 1038" transform="translate(-23.085 -22.608)">
    <g id="Group_1036" data-name="Group 1036" transform="translate(23.086 22.608)">
      <g id="Group_1033" data-name="Group 1033" transform="translate(94.168 0.038)">
        <path id="Path_1226" data-name="Path 1226" d="M215.719,40.1a10.436,10.436,0,0,1-.371,2.128,8.24,8.24,0,0,1-6.486,6.146,11.742,11.742,0,0,1-8.263-.793,7.959,7.959,0,0,1-4.476-7.2c-.114-3.14-.138-6.292,0-9.43a8.188,8.188,0,0,1,6.638-7.857c.4-.1.795-.186,1.191-.278a11.331,11.331,0,0,1,3.583,0,.642.642,0,0,1,.091.016c.17.042.34.089.511.124,3.6.731,6.16,2.64,7.2,6.3a11.8,11.8,0,0,1,.372,2.128ZM211.57,31l-.178-.1a2.292,2.292,0,0,1-.137.261q-4.3,6.315-8.617,12.623c-.278.4-.136.566.227.773a6.319,6.319,0,0,0,3.483.768c2.534-.1,5.2-2.59,5.265-5.129.071-2.973.016-5.949.013-8.923A1.349,1.349,0,0,0,211.57,31m-11.384,9.529c1.086-1.568,2.133-3.072,3.171-4.583,1.873-2.728,3.734-5.465,5.618-8.185.267-.385.187-.544-.184-.781a5.833,5.833,0,0,0-3.468-.8,5.613,5.613,0,0,0-5.264,5.376q-.011,4.1,0,8.2a1.15,1.15,0,0,0,.127.773" transform="translate(-196.029 -22.677)" fill="#90b51d"/>
      </g>
      <g id="Group_1034" data-name="Group 1034" transform="translate(10.589 0.72)">
        <path id="Path_1227" data-name="Path 1227" d="M46.656,30.874c0,1.017,0,1.879,0,2.742.015,4.738-.245,9.473-.151,14.213.015.774-.2.974-1,.995-.628.017-1.258.014-1.887,0-.911-.016-1.085-.2-1.086-1.13q0-10.016,0-20.033c0-.992.013-1.984,0-2.975-.008-.519.209-.758.735-.745.58.016,1.164,0,1.74-.012a2.315,2.315,0,0,1,2.21,1.121c2.712,3.726,5.48,7.411,8.226,11.111q2.243,3.023,4.482,6.048c.068.093.152.173.246.276-.024-.4-.065-.76-.065-1.118q0-8.092,0-16.186c0-1.193.045-1.237,1.214-1.238.677,0,1.355.013,2.032,0,.528-.011.756.233.728.748-.008.145,0,.291,0,.436q0,11.251,0,22.5c0,1.038-.043,1.11-1.081,1.182a17.825,17.825,0,0,1-2.1,0,1.389,1.389,0,0,1-1.1-.592q-6.4-8.548-12.822-17.074a2.979,2.979,0,0,0-.317-.269" transform="translate(-42.533 -23.93)" fill="#737373"/>
      </g>
      <g id="Group_1035" data-name="Group 1035" transform="translate(0 0.744)">
        <path id="Path_1228" data-name="Path 1228" d="M23.086,36.335q0-5.547,0-11.095c0-1.265,0-1.266,1.3-1.266.653,0,1.306.01,1.958,0,.488-.007.706.219.7.7-.009.653,0,1.306,0,1.958q0,10.442,0,20.885c0,1.2-.115,1.314-1.335,1.319-.532,0-1.064.011-1.6,0-.83-.023-1.024-.216-1.024-1.043q-.007-5.73,0-11.458" transform="translate(-23.086 -23.974)" fill="#90b51d"/>
      </g>
      <path id="Path_1229" data-name="Path 1229" d="M102.633,22.79a11.263,11.263,0,0,1,4.554,1.941,8.9,8.9,0,0,1,3.747,7.1c.015,1.112,0,2.226,0,3.339,0,1.135-.013,1.148-1.125,1.148q-6.605,0-13.211,0c-1.328,0-1.342.017-1.346,1.335A9.2,9.2,0,0,0,96,42.315a5.59,5.59,0,0,0,8.716,1.5,8.711,8.711,0,0,0,1.18-1.274c.463-.646.88-.712,1.626-.347q.783.381,1.561.772c.736.372.87.741.582,1.52a4.486,4.486,0,0,1-1.8,2.128,11.672,11.672,0,0,1-11.917.98,7.7,7.7,0,0,1-4.517-6.557,68.258,68.258,0,0,1-.114-9.42A9.158,9.158,0,0,1,95.153,24.6a9.69,9.69,0,0,1,4.286-1.81,7.043,7.043,0,0,1,3.195,0m-1.523,10.28c1.62,0,3.24.009,4.86,0,.812-.007,1.008-.194.986-.983a5.794,5.794,0,0,0-2.244-4.649,5.795,5.795,0,0,0-9.451,4.435c-.033,1.069.114,1.2,1.208,1.2,1.547,0,3.095,0,4.642,0" transform="translate(-54.117 -22.608)" fill="#737373"/>
      <path id="Path_1230" data-name="Path 1230" d="M133.843,23.959A2.533,2.533,0,0,1,136.58,25.5c1.336,2.347,2.841,4.6,4.275,6.89.1.163.2.33.316.486.471.651.733.632,1.155-.05,1.717-2.77,3.447-5.532,5.154-8.307a1.061,1.061,0,0,1,1.007-.564c.87.009,1.742-.009,2.613.005.77.014,1,.408.609,1.079-.467.789-.987,1.547-1.487,2.315-1.795,2.75-3.582,5.5-5.4,8.241a.965.965,0,0,0-.027,1.234c1.356,2.056,2.681,4.132,4.015,6.2.956,1.481,1.914,2.96,2.86,4.447.545.856.314,1.311-.7,1.351-.8.032-1.6.014-2.395,0a1.338,1.338,0,0,1-1.17-.724q-2.52-4.1-5.05-8.2c-.525-.852-.739-.854-1.273,0q-2.532,4.053-5.064,8.107a1.526,1.526,0,0,1-1.484.832c-.7-.041-1.4,0-2.1-.013-1.06-.021-1.325-.469-.757-1.365,1.008-1.591,2.059-3.154,3.088-4.732,1.265-1.942,2.508-3.9,3.8-5.822a1.11,1.11,0,0,0-.011-1.433c-2.22-3.337-4.415-6.691-6.615-10.042a2.723,2.723,0,0,1-.38-.694c-.127-.445.008-.775.543-.784.508-.009,1.016,0,1.739,0" transform="translate(-72.416 -23.217)" fill="#737373"/>
      <path id="Path_1231" data-name="Path 1231" d="M178.021,36.335q0-5.585,0-11.171c0-1.134.06-1.188,1.191-1.19.726,0,1.451.01,2.176,0a.637.637,0,0,1,.724.7c.008.193.01.387.01.58q0,11.062,0,22.125c0,1.322-.134,1.454-1.446,1.457-.46,0-.919,0-1.378,0-1.08-.008-1.276-.194-1.277-1.261q-.007-4.825,0-9.647,0-.8,0-1.6" transform="translate(-93.658 -23.23)" fill="#90b51d"/>
    </g>
    <g id="Group_1037" data-name="Group 1037" transform="translate(23.497 53.284)">
      <path id="Path_1232" data-name="Path 1232" d="M136.619,79.079h-1.166V83.1a1.45,1.45,0,0,1-.267.956,1.026,1.026,0,0,1-.829.316,1.014,1.014,0,0,1-.819-.316,1.45,1.45,0,0,1-.268-.956V79.079h-1.158v4.078a2.073,2.073,0,0,0,.579,1.539,2.266,2.266,0,0,0,1.666.574A2.6,2.6,0,0,0,135.589,85a1.819,1.819,0,0,0,.772-.75,2.259,2.259,0,0,0,.259-1.092Zm-12.892.754a1.2,1.2,0,0,1,1.066.543,4.3,4.3,0,0,1,0,3.465,1.2,1.2,0,0,1-1.066.543q-1.437,0-1.438-2.271a3.175,3.175,0,0,1,.369-1.733,1.208,1.208,0,0,1,1.069-.548m0-.886a2.592,2.592,0,0,0-1.407.377,2.441,2.441,0,0,0-.926,1.092,4.635,4.635,0,0,0,0,3.407,2.394,2.394,0,0,0,.921,1.078,2.633,2.633,0,0,0,1.412.369,2.573,2.573,0,0,0,1.4-.377,2.448,2.448,0,0,0,.921-1.087,4.064,4.064,0,0,0,.325-1.7,4.157,4.157,0,0,0-.32-1.711,2.376,2.376,0,0,0-.917-1.078,2.632,2.632,0,0,0-1.412-.369m-8.681.132-1.281,2.815-1.28-2.815H111.2l1.947,3.771v2.289h1.176v-2.3l1.947-3.762Zm-13.234-.132a2.736,2.736,0,0,0-1.4.369,2.615,2.615,0,0,0-1,1.083,3.647,3.647,0,0,0-.372,1.706,3.545,3.545,0,0,0,.688,2.359,2.468,2.468,0,0,0,1.987.806,3.956,3.956,0,0,0,2.087-.6V81.71h-2.175l.123.859h.912v1.579a1.906,1.906,0,0,1-.964.236,1.21,1.21,0,0,1-1.083-.535,3.259,3.259,0,0,1-.355-1.745,2.737,2.737,0,0,1,.447-1.72,1.4,1.4,0,0,1,1.149-.561,1.78,1.78,0,0,1,.662.114,2.577,2.577,0,0,1,.61.369l.622-.649a3.071,3.071,0,0,0-.872-.53,2.9,2.9,0,0,0-1.057-.18m-7.2.132H93.56V81.92q0,.571.053,1.145c.035.383.07.692.106.925L91.6,79.079H90.14v6.06h1.053V82.666q0-.728-.039-1.255t-.119-1.175l2.078,4.9h1.5Zm-10.384,6.06h1.158v-6.06H84.229Zm-8.585-6.06V80h1.631v5.139h1.166V80H80.02l.123-.921Zm-5.306-.132a2.465,2.465,0,0,0-2.3,1.447,3.854,3.854,0,0,0-.346,1.7,4.054,4.054,0,0,0,.333,1.723,2.422,2.422,0,0,0,.938,1.082,2.63,2.63,0,0,0,1.394.369A2.526,2.526,0,0,0,71.4,85.06a2.474,2.474,0,0,0,.776-.526l-.543-.684a3.261,3.261,0,0,1-.6.364,1.535,1.535,0,0,1-.64.127,1.277,1.277,0,0,1-1.087-.553,3.772,3.772,0,0,1,0-3.4,1.288,1.288,0,0,1,1.083-.543,1.769,1.769,0,0,1,1.122.43l.588-.684A2.916,2.916,0,0,0,71.3,79.1a2.7,2.7,0,0,0-.965-.158m-10.182.132v6.06h3.552v-.868H61.314V82.49h1.947v-.859H61.314V79.938H63.55l.123-.859Zm-4.753,0H54.351V81.92q0,.571.052,1.145c.035.383.07.692.105.925L52.4,79.079H50.93v6.06h1.053V82.666q0-.728-.04-1.255t-.118-1.175l2.079,4.9h1.5Zm-9.225,0H45.125V81.92q0,.571.052,1.145c.035.383.07.692.106.925l-2.114-4.911H41.7v6.06h1.053V82.666q0-.728-.04-1.255T42.6,80.236l2.078,4.9h1.5Zm-11.541.754a1.2,1.2,0,0,1,1.065.543,4.3,4.3,0,0,1,0,3.465,1.2,1.2,0,0,1-1.065.543q-1.439,0-1.439-2.271a3.175,3.175,0,0,1,.369-1.733,1.209,1.209,0,0,1,1.07-.548m0-.886a2.6,2.6,0,0,0-1.408.377,2.437,2.437,0,0,0-.925,1.092,4.635,4.635,0,0,0,0,3.407,2.394,2.394,0,0,0,.921,1.078,2.633,2.633,0,0,0,1.412.369,2.575,2.575,0,0,0,1.4-.377,2.453,2.453,0,0,0,.921-1.087,4.081,4.081,0,0,0,.325-1.7,4.148,4.148,0,0,0-.32-1.711,2.373,2.373,0,0,0-.917-1.078,2.633,2.633,0,0,0-1.411-.369m-8.147,0a2.465,2.465,0,0,0-2.3,1.447,3.861,3.861,0,0,0-.346,1.7,4.062,4.062,0,0,0,.333,1.723,2.423,2.423,0,0,0,.939,1.082,2.627,2.627,0,0,0,1.394.369,2.533,2.533,0,0,0,1.049-.211,2.478,2.478,0,0,0,.776-.526l-.544-.684a3.243,3.243,0,0,1-.6.364,1.535,1.535,0,0,1-.64.127,1.277,1.277,0,0,1-1.087-.553,3.772,3.772,0,0,1,0-3.4,1.288,1.288,0,0,1,1.083-.543,1.769,1.769,0,0,1,1.122.43l.589-.684a2.936,2.936,0,0,0-.807-.482,2.694,2.694,0,0,0-.964-.158" transform="translate(-23.841 -78.947)" fill="#737373"/>
    </g>
  </g>
</svg>
